# xmcd
#
# Track frame offsets: 
#        150
#        11907
#        23815
#        34097
#        48065
#        59967
#        72757
#        86205
#
# Disc length: 1314 seconds
#
# Revision: 1
# Processed by: cddbd v1.4PL0 Copyright (c) Steve Scherf et al.
# Submitted via: ExactAudioCopy v0.90b4
#
DISCID=6a052008
DTITLE=Freddie King - Greatest Hits
DYEAR=1900
DGENRE=Blues
TTITLE0=Hide Away
TTITLE1=I'm Tore Down
TTITLE2=See See Baby
TTITLE3=Use What You've Got
TTITLE4=San-Ho-Zay
TTITLE5=Lonesome Whistle Blues
TTITLE6=She Put the Whammy on Me
TTITLE7=You've Got me Licked
EXTD=
EXTT0=
EXTT1=
EXTT2=
EXTT3=
EXTT4=
EXTT5=
EXTT6=
EXTT7=
PLAYORDER=
